<?xml version="1.0" encoding="utf-8"?>
<!-- Generator: Adobe Illustrator 16.0.0, SVG Export Plug-In . SVG Version: 6.00 Build 0)  -->
<!DOCTYPE svg PUBLIC "-//W3C//DTD SVG 1.1//EN" "http://www.w3.org/Graphics/SVG/1.1/DTD/svg11.dtd">
<svg shape-rendering="crispEdges" version="1.1" id="Layer_1" xmlns="http://www.w3.org/2000/svg" xmlns:xlink="http://www.w3.org/1999/xlink" x="0px" y="0px"
	 width="2700px" height="100px" viewBox="0 0 2700 100" enable-background="new 0 0 2700 100" xml:space="preserve">
<rect y="25" fill="#875D7F" width="900" height="75"/>
<rect x="125" y="25" fill="#96C982" width="25" height="25"/>
<rect x="800" y="25" fill="#96C982" width="25" height="25"/>
<rect x="650" y="25" fill="#96C982" width="25" height="25"/>
<rect x="600" y="25" fill="#96C982" width="25" height="25"/>
<rect x="425" y="25" fill="#96C982" width="50" height="25"/>
<rect x="325" y="25" fill="#96C982" width="25" height="25"/>
<rect y="25" fill="#77506F" width="25" height="25"/>
<rect x="476" y="25" fill="#77506F" width="125" height="25"/>
<rect x="150" y="25" fill="#77506F" width="175" height="25"/>
<rect x="75" y="25" fill="#77506F" width="50" height="25"/>
<rect x="350" y="25" fill="#77506F" width="75" height="25"/>
<rect x="675" y="25" fill="#77506F" width="125" height="25"/>
<rect x="625" y="25" fill="#77506F" width="25" height="25"/>
<rect x="825" y="25" fill="#77506F" width="75" height="25"/>
<rect x="600" y="50" fill="#77506F" width="100" height="25"/>
<rect x="800" y="50" fill="#77506F" width="50" height="25"/>
<rect x="325" y="50" fill="#77506F" width="50" height="25"/>
<rect x="125" y="50" fill="#77506F" width="50" height="25"/>
<rect x="25" y="50" fill="#77506F" width="75" height="25"/>
<rect x="425" y="50" fill="#77506F" width="75" height="25"/>
<rect y="75" fill="#77506F" width="25" height="25"/>
<rect x="275" y="50" fill="#77506F" width="25" height="25"/>
<rect x="225" y="75" fill="#77506F" width="25" height="25"/>
<rect x="500" y="75" fill="#77506F" width="25" height="25"/>
<rect x="550" y="75" fill="#77506F" width="25" height="25"/>
<rect x="725" y="75" fill="#77506F" width="25" height="25"/>
<rect x="850" y="75" fill="#77506F" width="25" height="25"/>
<rect fill="#96C982" width="900" height="25"/>
<rect x="25" y="25" fill="#96C982" width="50" height="25"/>
<rect x="900" y="25" fill="#875D7F" width="900" height="75"/>
<rect x="1025" y="25" fill="#96C982" width="25" height="25"/>
<rect x="1700" y="25" fill="#96C982" width="25" height="25"/>
<rect x="1550" y="25" fill="#96C982" width="25" height="25"/>
<rect x="1500" y="25" fill="#96C982" width="25" height="25"/>
<rect x="1325" y="25" fill="#96C982" width="50" height="25"/>
<rect x="1225" y="25" fill="#96C982" width="25" height="25"/>
<rect x="900" y="25" fill="#77506F" width="25" height="25"/>
<rect x="1376" y="25" fill="#77506F" width="125" height="25"/>
<rect x="1050" y="25" fill="#77506F" width="175" height="25"/>
<rect x="975" y="25" fill="#77506F" width="50" height="25"/>
<rect x="1250" y="25" fill="#77506F" width="75" height="25"/>
<rect x="1575" y="25" fill="#77506F" width="125" height="25"/>
<rect x="1525" y="25" fill="#77506F" width="25" height="25"/>
<rect x="1725" y="25" fill="#77506F" width="75" height="25"/>
<rect x="1500" y="50" fill="#77506F" width="100" height="25"/>
<rect x="1700" y="50" fill="#77506F" width="50" height="25"/>
<rect x="1225" y="50" fill="#77506F" width="50" height="25"/>
<rect x="1025" y="50" fill="#77506F" width="50" height="25"/>
<rect x="925" y="50" fill="#77506F" width="75" height="25"/>
<rect x="1325" y="50" fill="#77506F" width="75" height="25"/>
<rect x="900" y="75" fill="#77506F" width="25" height="25"/>
<rect x="1175" y="50" fill="#77506F" width="25" height="25"/>
<rect x="1125" y="75" fill="#77506F" width="25" height="25"/>
<rect x="1400" y="75" fill="#77506F" width="25" height="25"/>
<rect x="1450" y="75" fill="#77506F" width="25" height="25"/>
<rect x="1625" y="75" fill="#77506F" width="25" height="25"/>
<rect x="1750" y="75" fill="#77506F" width="25" height="25"/>
<rect x="900" fill="#96C982" width="900" height="25"/>
<rect x="925" y="25" fill="#96C982" width="50" height="25"/>
<rect x="1800" y="25" fill="#875D7F" width="900" height="75"/>
<rect x="1925" y="25" fill="#96C982" width="25" height="25"/>
<rect x="2600" y="25" fill="#96C982" width="25" height="25"/>
<rect x="2450" y="25" fill="#96C982" width="25" height="25"/>
<rect x="2400" y="25" fill="#96C982" width="25" height="25"/>
<rect x="2225" y="25" fill="#96C982" width="50" height="25"/>
<rect x="2125" y="25" fill="#96C982" width="25" height="25"/>
<rect x="1800" y="25" fill="#77506F" width="25" height="25"/>
<rect x="2276" y="25" fill="#77506F" width="125" height="25"/>
<rect x="1950" y="25" fill="#77506F" width="175" height="25"/>
<rect x="1875" y="25" fill="#77506F" width="50" height="25"/>
<rect x="2150" y="25" fill="#77506F" width="75" height="25"/>
<rect x="2475" y="25" fill="#77506F" width="125" height="25"/>
<rect x="2425" y="25" fill="#77506F" width="25" height="25"/>
<rect x="2625" y="25" fill="#77506F" width="75" height="25"/>
<rect x="2400" y="50" fill="#77506F" width="100" height="25"/>
<rect x="2600" y="50" fill="#77506F" width="50" height="25"/>
<rect x="2125" y="50" fill="#77506F" width="50" height="25"/>
<rect x="1925" y="50" fill="#77506F" width="50" height="25"/>
<rect x="1825" y="50" fill="#77506F" width="75" height="25"/>
<rect x="2225" y="50" fill="#77506F" width="75" height="25"/>
<rect x="1800" y="75" fill="#77506F" width="25" height="25"/>
<rect x="2075" y="50" fill="#77506F" width="25" height="25"/>
<rect x="2025" y="75" fill="#77506F" width="25" height="25"/>
<rect x="2300" y="75" fill="#77506F" width="25" height="25"/>
<rect x="2350" y="75" fill="#77506F" width="25" height="25"/>
<rect x="2525" y="75" fill="#77506F" width="25" height="25"/>
<rect x="2650" y="75" fill="#77506F" width="25" height="25"/>
<rect x="1800" fill="#96C982" width="900" height="25"/>
<rect x="1825" y="25" fill="#96C982" width="50" height="25"/>
</svg>
